<mxfile host="app.diagrams.net" agent="Mozilla/5.0 (Macintosh; Intel Mac OS X 10_15_7) AppleWebKit/537.36 (KHTML, like Gecko) Chrome/133.0.0.0 Safari/537.36" version="26.0.16">
  <diagram name="Page-1" id="5w9zh92l2I3PRi7z9li7">
    <mxGraphModel dx="1605" dy="1167" grid="1" gridSize="10" guides="1" tooltips="1" connect="1" arrows="1" fold="1" page="1" pageScale="1" pageWidth="850" pageHeight="1100" math="0" shadow="0">
      <root>
        <mxCell id="0" />
        <mxCell id="1" parent="0" />
        <mxCell id="_0f0LvLPxX9WlM1UR6Vf-1" value="User" style="shape=umlActor;verticalLabelPosition=bottom;verticalAlign=top;html=1;outlineConnect=0;" vertex="1" parent="1">
          <mxGeometry x="40" y="20" width="30" height="60" as="geometry" />
        </mxCell>
        <mxCell id="_0f0LvLPxX9WlM1UR6Vf-2" value="AppPage" style="shape=umlBoundary;whiteSpace=wrap;html=1;verticalAlign=top;fontSize=12;labelPosition=center;verticalLabelPosition=bottom;align=center;" vertex="1" parent="1">
          <mxGeometry x="170" y="20" width="70" height="60" as="geometry" />
        </mxCell>
        <mxCell id="_0f0LvLPxX9WlM1UR6Vf-3" value="PostDetailPage" style="shape=umlBoundary;whiteSpace=wrap;html=1;verticalAlign=top;fontSize=12;labelPosition=center;verticalLabelPosition=bottom;align=center;" vertex="1" parent="1">
          <mxGeometry x="510" y="20" width="70" height="60" as="geometry" />
        </mxCell>
        <mxCell id="_0f0LvLPxX9WlM1UR6Vf-4" value="AppController" style="ellipse;shape=umlControl;whiteSpace=wrap;html=1;labelPosition=center;verticalLabelPosition=bottom;align=center;verticalAlign=top;" vertex="1" parent="1">
          <mxGeometry x="350" y="10" width="60" height="70" as="geometry" />
        </mxCell>
        <mxCell id="_0f0LvLPxX9WlM1UR6Vf-5" value="PostDetailController" style="ellipse;shape=umlControl;whiteSpace=wrap;html=1;labelPosition=center;verticalLabelPosition=bottom;align=center;verticalAlign=top;" vertex="1" parent="1">
          <mxGeometry x="680" y="10" width="60" height="70" as="geometry" />
        </mxCell>
        <mxCell id="_0f0LvLPxX9WlM1UR6Vf-6" value="Post Database" style="shape=cylinder3;html=1;boundedLbl=1;backgroundOutline=1;size=15;labelPosition=center;verticalLabelPosition=bottom;align=center;verticalAlign=top;" vertex="1" parent="1">
          <mxGeometry x="830" y="20.000000000000057" width="40" height="60" as="geometry" />
        </mxCell>
        <mxCell id="_0f0LvLPxX9WlM1UR6Vf-7" value="" style="endArrow=none;dashed=1;html=1;rounded=0;" edge="1" parent="1">
          <mxGeometry width="50" height="50" relative="1" as="geometry">
            <mxPoint x="50" y="490" as="sourcePoint" />
            <mxPoint x="50" y="110" as="targetPoint" />
          </mxGeometry>
        </mxCell>
        <mxCell id="_0f0LvLPxX9WlM1UR6Vf-8" value="" style="endArrow=none;dashed=1;html=1;rounded=0;" edge="1" parent="1" source="_0f0LvLPxX9WlM1UR6Vf-17">
          <mxGeometry width="50" height="50" relative="1" as="geometry">
            <mxPoint x="210" y="940" as="sourcePoint" />
            <mxPoint x="210" y="110" as="targetPoint" />
          </mxGeometry>
        </mxCell>
        <mxCell id="_0f0LvLPxX9WlM1UR6Vf-9" value="" style="endArrow=none;dashed=1;html=1;rounded=0;" edge="1" parent="1">
          <mxGeometry width="50" height="50" relative="1" as="geometry">
            <mxPoint x="380" y="490" as="sourcePoint" />
            <mxPoint x="380" y="110" as="targetPoint" />
          </mxGeometry>
        </mxCell>
        <mxCell id="_0f0LvLPxX9WlM1UR6Vf-10" value="" style="endArrow=none;dashed=1;html=1;rounded=0;" edge="1" parent="1">
          <mxGeometry width="50" height="50" relative="1" as="geometry">
            <mxPoint x="550" y="490" as="sourcePoint" />
            <mxPoint x="550" y="110" as="targetPoint" />
          </mxGeometry>
        </mxCell>
        <mxCell id="_0f0LvLPxX9WlM1UR6Vf-11" value="" style="endArrow=none;dashed=1;html=1;rounded=0;" edge="1" parent="1">
          <mxGeometry width="50" height="50" relative="1" as="geometry">
            <mxPoint x="710" y="490" as="sourcePoint" />
            <mxPoint x="710" y="110" as="targetPoint" />
          </mxGeometry>
        </mxCell>
        <mxCell id="_0f0LvLPxX9WlM1UR6Vf-12" value="" style="endArrow=none;dashed=1;html=1;rounded=0;" edge="1" parent="1" source="_0f0LvLPxX9WlM1UR6Vf-20">
          <mxGeometry width="50" height="50" relative="1" as="geometry">
            <mxPoint x="850" y="940" as="sourcePoint" />
            <mxPoint x="850" y="110" as="targetPoint" />
          </mxGeometry>
        </mxCell>
        <mxCell id="_0f0LvLPxX9WlM1UR6Vf-13" value="Choose post" style="endArrow=classic;html=1;rounded=0;labelPosition=center;verticalLabelPosition=top;align=center;verticalAlign=bottom;exitX=1;exitY=0.5;exitDx=0;exitDy=0;entryX=0;entryY=0.5;entryDx=0;entryDy=0;" edge="1" parent="1">
          <mxGeometry width="50" height="50" relative="1" as="geometry">
            <mxPoint x="60" y="140" as="sourcePoint" />
            <mxPoint x="200" y="140" as="targetPoint" />
          </mxGeometry>
        </mxCell>
        <mxCell id="_0f0LvLPxX9WlM1UR6Vf-14" value="Send request to get post" style="endArrow=classic;html=1;rounded=0;labelPosition=center;verticalLabelPosition=top;align=center;verticalAlign=bottom;entryX=-0.13;entryY=0.159;entryDx=0;entryDy=0;entryPerimeter=0;exitX=0.993;exitY=0.402;exitDx=0;exitDy=0;exitPerimeter=0;" edge="1" parent="1" source="_0f0LvLPxX9WlM1UR6Vf-17" target="_0f0LvLPxX9WlM1UR6Vf-19">
          <mxGeometry width="50" height="50" relative="1" as="geometry">
            <mxPoint x="210" y="160" as="sourcePoint" />
            <mxPoint x="380" y="140" as="targetPoint" />
          </mxGeometry>
        </mxCell>
        <mxCell id="_0f0LvLPxX9WlM1UR6Vf-15" value="Query data" style="endArrow=classic;html=1;rounded=0;labelPosition=center;verticalLabelPosition=top;align=center;verticalAlign=bottom;" edge="1" parent="1">
          <mxGeometry width="50" height="50" relative="1" as="geometry">
            <mxPoint x="380" y="180" as="sourcePoint" />
            <mxPoint x="839" y="180" as="targetPoint" />
          </mxGeometry>
        </mxCell>
        <mxCell id="_0f0LvLPxX9WlM1UR6Vf-16" value="" style="rounded=0;whiteSpace=wrap;html=1;" vertex="1" parent="1">
          <mxGeometry x="40" y="120" width="20" height="50" as="geometry" />
        </mxCell>
        <mxCell id="_0f0LvLPxX9WlM1UR6Vf-18" value="" style="endArrow=none;dashed=1;html=1;rounded=0;" edge="1" parent="1" target="_0f0LvLPxX9WlM1UR6Vf-17">
          <mxGeometry width="50" height="50" relative="1" as="geometry">
            <mxPoint x="210" y="500" as="sourcePoint" />
            <mxPoint x="210" y="110" as="targetPoint" />
          </mxGeometry>
        </mxCell>
        <mxCell id="_0f0LvLPxX9WlM1UR6Vf-17" value="" style="rounded=0;whiteSpace=wrap;html=1;" vertex="1" parent="1">
          <mxGeometry x="200" y="120" width="20" height="50" as="geometry" />
        </mxCell>
        <mxCell id="_0f0LvLPxX9WlM1UR6Vf-19" value="" style="rounded=0;whiteSpace=wrap;html=1;" vertex="1" parent="1">
          <mxGeometry x="370" y="120" width="20" height="120" as="geometry" />
        </mxCell>
        <mxCell id="_0f0LvLPxX9WlM1UR6Vf-21" value="" style="endArrow=none;dashed=1;html=1;rounded=0;" edge="1" parent="1" target="_0f0LvLPxX9WlM1UR6Vf-20">
          <mxGeometry width="50" height="50" relative="1" as="geometry">
            <mxPoint x="850" y="490" as="sourcePoint" />
            <mxPoint x="850" y="110" as="targetPoint" />
          </mxGeometry>
        </mxCell>
        <mxCell id="_0f0LvLPxX9WlM1UR6Vf-20" value="" style="rounded=0;whiteSpace=wrap;html=1;" vertex="1" parent="1">
          <mxGeometry x="840" y="120" width="20" height="290" as="geometry" />
        </mxCell>
        <mxCell id="_0f0LvLPxX9WlM1UR6Vf-22" value="Return data" style="endArrow=classic;html=1;rounded=0;dashed=1;labelPosition=center;verticalLabelPosition=top;align=center;verticalAlign=bottom;exitX=-0.031;exitY=0.479;exitDx=0;exitDy=0;exitPerimeter=0;entryX=1;entryY=0.15;entryDx=0;entryDy=0;entryPerimeter=0;" edge="1" parent="1" source="_0f0LvLPxX9WlM1UR6Vf-20" target="_0f0LvLPxX9WlM1UR6Vf-25">
          <mxGeometry width="50" height="50" relative="1" as="geometry">
            <mxPoint x="839.9999999999999" y="260.19999999999976" as="sourcePoint" />
            <mxPoint x="742.5" y="260" as="targetPoint" />
          </mxGeometry>
        </mxCell>
        <mxCell id="_0f0LvLPxX9WlM1UR6Vf-25" value="" style="rounded=0;whiteSpace=wrap;html=1;" vertex="1" parent="1">
          <mxGeometry x="700" y="250" width="20" height="60" as="geometry" />
        </mxCell>
        <mxCell id="_0f0LvLPxX9WlM1UR6Vf-26" value="" style="rounded=0;whiteSpace=wrap;html=1;" vertex="1" parent="1">
          <mxGeometry x="540" y="270" width="20" height="60" as="geometry" />
        </mxCell>
        <mxCell id="_0f0LvLPxX9WlM1UR6Vf-27" value="" style="rounded=0;whiteSpace=wrap;html=1;" vertex="1" parent="1">
          <mxGeometry x="40" y="270" width="20" height="60" as="geometry" />
        </mxCell>
        <mxCell id="_0f0LvLPxX9WlM1UR6Vf-28" value="Return data" style="endArrow=classic;html=1;rounded=0;dashed=1;labelPosition=center;verticalLabelPosition=top;align=center;verticalAlign=bottom;exitX=0;exitY=0.5;exitDx=0;exitDy=0;entryX=1;entryY=0.15;entryDx=0;entryDy=0;entryPerimeter=0;" edge="1" parent="1" source="_0f0LvLPxX9WlM1UR6Vf-25">
          <mxGeometry width="50" height="50" relative="1" as="geometry">
            <mxPoint x="680" y="279.5" as="sourcePoint" />
            <mxPoint x="560" y="280.5" as="targetPoint" />
          </mxGeometry>
        </mxCell>
        <mxCell id="_0f0LvLPxX9WlM1UR6Vf-29" value="Show post data" style="endArrow=classic;html=1;rounded=0;dashed=1;labelPosition=center;verticalLabelPosition=top;align=center;verticalAlign=bottom;exitX=0;exitY=0.5;exitDx=0;exitDy=0;entryX=1;entryY=0.5;entryDx=0;entryDy=0;" edge="1" parent="1" target="_0f0LvLPxX9WlM1UR6Vf-27">
          <mxGeometry width="50" height="50" relative="1" as="geometry">
            <mxPoint x="540" y="299.69" as="sourcePoint" />
            <mxPoint x="400" y="300.19" as="targetPoint" />
          </mxGeometry>
        </mxCell>
      </root>
    </mxGraphModel>
  </diagram>
</mxfile>
